<?xml version="1.0" standalone="no"?>
<!DOCTYPE svg PUBLIC "-//W3C//DTD SVG 20010904//EN"
 "http://www.w3.org/TR/2001/REC-SVG-20010904/DTD/svg10.dtd">
<svg version="1.0" xmlns="http://www.w3.org/2000/svg"
 width="980.000000pt" height="824.000000pt" viewBox="0 0 980.000000 824.000000"
 preserveAspectRatio="xMidYMid meet">

<g transform="translate(0.000000,824.000000) scale(0.100000,-0.100000)"
fill="#000000" stroke="none">
<path d="M9611 8130 c-138 -437 -387 -910 -699 -1324 -259 -343 -644 -736
-1007 -1028 -244 -197 -595 -437 -895 -612 -210 -123 -680 -358 -919 -460
-827 -352 -1734 -593 -2671 -710 -181 -23 -499 -56 -537 -56 -11 0 -13 154
-13 895 0 492 -3 895 -8 895 -4 0 -649 -642 -1435 -1428 l-1427 -1427 1435
-1435 1435 -1435 0 887 0 887 53 5 c28 3 104 11 167 16 1926 179 3716 882
4976 1954 159 135 506 481 638 636 856 1003 1223 2154 1055 3315 -21 147 -67
369 -97 470 l-18 59 -33 -104z"/>
</g>
</svg>
